<svg xmlns="http://www.w3.org/2000/svg" width="590.383" height="101.004"><path fill="#B52467" d="M373.381 76.355c0-11.748 9.521-21.267 21.268-21.267 11.742 0 21.262 9.519 21.262 21.267 0 11.742-9.52 21.263-21.262 21.263-11.745 0-21.268-9.52-21.268-21.263z"/><g fill="#FFF"><path d="M385.42 73.366l1.158 1.158 2.088-2.092a.31.31 0 0 0-.218-.532.306.306 0 0 0-.225.094l-1.646 1.646-.715-.712a.305.305 0 0 0-.222-.09.312.312 0 0 0-.312.312.304.304 0 0 0 .092.216zM388.45 75.018a.312.312 0 0 0-.226.093l-1.646 1.647-.716-.715a.312.312 0 0 0-.222-.088.31.31 0 0 0-.222.53l1.158 1.158 2.09-2.094a.31.31 0 0 0-.216-.531zM388.45 78.138a.324.324 0 0 0-.226.088l-1.646 1.649-.716-.713a.311.311 0 0 0-.534.22c0 .084.033.166.09.218l1.158 1.157 2.09-2.092a.305.305 0 0 0 .092-.221.306.306 0 0 0-.308-.306zM389.381 72.838h2.808v.936h-2.808zM389.381 75.956h2.808v.935h-2.808zM389.381 79.07h2.808v.938h-2.808z"/><path d="M383.459 70.032v12.779h22.443V70.032h-22.443zm.624 12.156V70.651h9.043v11.537h-9.043zm21.199 0h-11.533V70.651h11.533v11.537z"/><path d="M401.542 79.07v.313h-.313v-3.12h-.625v-.307h-2.492v.307h-.315v-3.114h-.623v-.311h-2.492v.935h2.492v-.312h.313v3.116h.625v.313h2.492v-.313h.313v3.117h.625v.314h2.492v-.938z"/></g><path fill="#FFF" d="M406.717 63.735H382.65c-.722 0-1.302.585-1.302 1.303v22.769c0 .716.58 1.3 1.302 1.3h24.067c.711 0 1.299-.583 1.299-1.3V65.038c0-.718-.588-1.303-1.299-1.303zm-17.215 1.303c.537 0 .973.434.973.976s-.436.978-.973.978a.976.976 0 1 1 0-1.954zm-2.925 0c.534 0 .973.434.973.976a.976.976 0 1 1-1.954 0 .974.974 0 0 1 .981-.976zm-2.931 0c.542 0 .976.434.976.976s-.434.978-.976.978a.977.977 0 0 1 0-1.954zm23.067 22.114H382.65V68.288h24.063v18.864z"/><g fill="#131215"><path d="M443.27 81.672V71.495l-4.375 7.805h-.945l-4.396-7.805v10.178h-1.668V68.508h1.762l4.766 8.548 4.783-8.548h1.742v13.164h-1.669zM447.065 78.891c0-1.835 1.688-3.041 4.078-3.041.945 0 1.965.186 2.707.482v-.779c0-1.576-.945-2.54-2.559-2.54-1.002 0-2.021.389-3.078 1.131l-.537-1.058c1.242-.834 2.465-1.26 3.801-1.26 2.467 0 4.004 1.446 4.004 3.894v3.948c0 .408.148.576.52.594v1.408c-.24.037-.48.074-.666.074-.539 0-1.188-.277-1.225-.981l-.037-.687c-.871 1.168-2.354 1.78-3.67 1.78-1.947.001-3.338-1.314-3.338-2.965zm6.434.593c.24-.278.352-.556.352-.76v-1.429a7.012 7.012 0 0 0-2.445-.463c-1.67 0-2.781.742-2.781 1.91 0 1.002.816 1.891 2.188 1.891 1.033 0 2.129-.5 2.686-1.149zM463.229 73.422c-1.633.037-2.969.871-3.486 2.279v5.971h-1.631v-9.678h1.52v2.243c.668-1.335 1.836-2.317 3.061-2.317.24 0 .406 0 .537.019v1.483h-.001zM471.643 81.672l-3.338-4.729-1.854 1.743v2.985h-1.631V68.138h1.631v8.899l4.969-5.024h1.799l-3.855 4.005 4.041 5.654h-1.762zM474.141 76.833c0-2.725 2.041-5.004 4.951-5.004 2.93 0 4.838 2.336 4.838 4.93 0 .261-.018.52-.035.631h-8.027c.146 1.91 1.576 3.244 3.262 3.244 1.188 0 2.355-.648 2.764-1.612l1.408.39c-.631 1.428-2.279 2.447-4.227 2.447-2.91-.002-4.934-2.3-4.934-5.026zm8.25-.649c-.166-1.854-1.574-3.133-3.299-3.133s-3.133 1.297-3.264 3.133h6.563zM490.733 81.19c-.408.186-1.316.611-2.355.611-1.186 0-2.188-.629-2.188-2.02v-6.508h-1.316v-1.279h1.316v-3.226h1.631v3.226h2.17v1.279h-2.17v6.008c.037.704.52 1.02 1.094 1.02.65 0 1.242-.297 1.428-.408l.39 1.297zM492.139 70.176v-2.038h1.633v2.038h-1.633zm0 11.496v-9.678h1.633v9.678h-1.633zM504.725 81.672h-1.631v-5.414c0-2.059-.631-2.967-1.908-2.967-1.336 0-2.781 1.076-3.227 2.541v5.84h-1.633v-9.678h1.484v2.076c.76-1.354 2.316-2.242 4.021-2.242 2.242 0 2.893 1.723 2.893 4.06v5.784h.001zM506.594 76.852c0-2.725 1.836-5.023 4.486-5.023 1.613 0 2.799.889 3.615 2.094v-1.928h1.445v9.566c0 2.744-2.188 4.246-4.932 4.246-2.188 0-3.486-.816-4.395-2.133l.945-.834c.762 1.132 2.059 1.707 3.449 1.707 1.779 0 3.299-.965 3.299-2.985v-1.706c-.723 1.188-2.076 1.928-3.447 1.928-2.629 0-4.465-2.355-4.465-4.932zm7.916 1.427v-2.78c-.52-1.316-1.816-2.263-3.096-2.263-1.965 0-3.17 1.854-3.17 3.652 0 1.928 1.465 3.56 3.318 3.56 1.372 0 2.688-1.074 2.948-2.169zM532.471 81.672l-1.373-1.428c-1.057 1.02-2.408 1.612-3.91 1.612-2.43 0-4.266-1.558-4.266-3.671 0-1.743 1.242-2.874 2.615-3.838-1.225-1.334-1.67-2.113-1.67-3.041 0-1.706 1.465-2.967 3.395-2.967 1.762 0 3.207 1.039 3.207 2.688 0 1.501-1.205 2.484-2.707 3.468l3.355 3.521a6.805 6.805 0 0 0 .742-3.133h1.354c-.02 1.595-.428 3.003-1.131 4.134l2.539 2.651h-2.15v.004zm-2.262-2.373l-3.746-3.949c-1.148.834-1.965 1.706-1.965 2.855 0 1.5 1.391 2.354 2.855 2.354 1.097.001 2.097-.463 2.856-1.26zm-3.412-5.784c1.262-.834 2.17-1.502 2.17-2.447 0-.872-.723-1.483-1.705-1.483-1.094 0-1.893.76-1.893 1.688.003.536.28.999 1.428 2.242zM548.762 71.271c-.611-.687-2.002-1.372-3.578-1.372-2.039 0-2.967.814-2.967 2.15 0 1.408 1.096 1.779 3.467 2.316 2.744.612 4.449 1.391 4.449 3.764 0 2.541-2.076 3.672-4.783 3.672-2.02 0-3.875-.649-5.355-1.854l.797-1.41c.797.834 2.596 1.762 4.598 1.762 1.871 0 2.967-.687 2.967-2.002 0-1.483-1.354-1.928-3.801-2.521-2.67-.648-4.061-1.372-4.061-3.467 0-2.521 2.002-3.895 4.727-3.895 1.764 0 3.207.594 4.32 1.502l-.78 1.355zM551.334 78.891c0-1.835 1.688-3.041 4.078-3.041.945 0 1.965.186 2.707.482v-.779c0-1.576-.945-2.54-2.559-2.54-1.002 0-2.021.389-3.076 1.131l-.539-1.058c1.242-.834 2.467-1.26 3.801-1.26 2.467 0 4.004 1.446 4.004 3.894v3.948c0 .408.148.576.521.594v1.408c-.242.037-.482.074-.668.074-.537 0-1.188-.277-1.225-.981l-.037-.687c-.871 1.168-2.354 1.78-3.67 1.78-1.946.001-3.337-1.314-3.337-2.965zm6.434.593c.24-.278.354-.556.354-.76v-1.429a7.031 7.031 0 0 0-2.447-.463c-1.67 0-2.781.742-2.781 1.91 0 1.002.816 1.891 2.188 1.891 1.038 0 2.129-.5 2.686-1.149zM562.418 68.138h1.631v11.03c0 .724.408 1.149 1.096 1.149.275 0 .686-.093 1-.222l.26 1.316a5.849 5.849 0 0 1-1.947.389c-1.26 0-2.039-.76-2.039-2.039V68.138h-.001zM566.958 76.833c0-2.725 2.041-5.004 4.951-5.004 2.93 0 4.838 2.336 4.838 4.93 0 .261-.018.52-.037.631h-8.027c.148 1.91 1.576 3.244 3.264 3.244 1.188 0 2.354-.648 2.764-1.612l1.408.39c-.631 1.428-2.279 2.447-4.229 2.447-2.909-.002-4.932-2.3-4.932-5.026zm8.25-.649c-.166-1.854-1.574-3.133-3.299-3.133s-3.133 1.297-3.264 3.133h6.563zM577.709 80.448l.703-1.094c1.131.854 2.262 1.298 3.504 1.298 1.391 0 2.299-.593 2.299-1.595 0-.965-.871-1.242-2.725-1.688-2.336-.574-3.318-1.02-3.318-2.539 0-1.947 1.65-3.004 3.707-3.004 1.447 0 2.764.52 3.635 1.279l-.74.982c-.816-.723-1.873-1.074-2.932-1.074-1.186 0-2.131.482-2.131 1.594 0 .908.629 1.112 2.279 1.52 2.578.613 3.801 1.131 3.801 2.781 0 1.799-1.502 2.948-3.838 2.948-1.536.001-3.167-.499-4.244-1.408z"/></g><g><path fill="#B52467" d="M373.381 23.268c0-11.748 9.521-21.267 21.268-21.267 11.742 0 21.262 9.519 21.262 21.267 0 11.742-9.52 21.267-21.262 21.267-11.745 0-21.268-9.525-21.268-21.267z"/><g fill="#FFF"><path d="M385.42 20.282l1.158 1.158 2.088-2.095a.302.302 0 0 0 .094-.221.313.313 0 0 0-.537-.215l-1.646 1.648-.715-.712a.296.296 0 0 0-.222-.093.312.312 0 0 0-.312.311.322.322 0 0 0 .092.219zM388.45 21.93a.312.312 0 0 0-.226.093l-1.646 1.649-.716-.712a.305.305 0 0 0-.222-.089.309.309 0 0 0-.222.526l1.158 1.158 2.09-2.092a.304.304 0 0 0 .092-.218.31.31 0 0 0-.308-.315zM388.45 25.048a.312.312 0 0 0-.226.093l-1.646 1.652-.716-.718a.308.308 0 0 0-.222-.093.314.314 0 0 0-.222.535l1.158 1.155 2.09-2.092a.307.307 0 0 0 .092-.222.31.31 0 0 0-.308-.31zM389.381 19.752h2.808v.934h-2.808zM389.381 22.87h2.808v.934h-2.808zM389.381 25.982h2.808v.939h-2.808z"/><path d="M383.459 16.945v12.781h22.443V16.945h-22.443zm.624 12.155V17.567h9.043V29.1h-9.043zm21.199 0h-11.533V17.567h11.533V29.1z"/><path d="M401.542 25.982v.314h-.313v-3.118h-.625v-.308h-2.492v.308h-.315v-3.115h-.623v-.311h-2.492v.934h2.492v-.311h.313v3.117h.625v.312h2.492v-.312h.313V26.607h.625v.314h2.492v-.939z"/></g><path fill="#FFF" d="M406.717 10.652H382.65c-.722 0-1.302.58-1.302 1.298v22.77a1.3 1.3 0 0 0 1.302 1.299h24.067c.711 0 1.299-.583 1.299-1.299V11.951c0-.719-.588-1.299-1.299-1.299zm-17.215 1.299a.975.975 0 1 1-.005 1.95.975.975 0 0 1 .005-1.95zm-2.925 0a.975.975 0 1 1 0 1.952.977.977 0 1 1 0-1.952zm-2.931 0c.542 0 .976.437.976.979a.976.976 0 1 1-.976-.979zm23.067 22.116H382.65v-18.86h24.063v18.86z"/><g><g fill="#131215"><path d="M438.133 29.534h-6.248V16.371h6.545c1.854 0 3.004 1.706 3.004 3.356 0 1.297-.688 2.521-1.893 3.059 1.502.445 2.447 1.724 2.447 3.356.003 2.038-1.739 3.392-3.855 3.392zm-4.58-11.717v4.394h4.191c1.168 0 2.039-.982 2.039-2.188 0-1.242-.816-2.206-1.928-2.206h-4.302zm4.709 5.747h-4.709v4.523h4.58c1.225 0 2.17-1.057 2.17-2.243 0-1.205-.873-2.28-2.041-2.28zM443.952 25.659v-5.803h1.633v5.488c0 1.984.686 2.966 2.057 2.966 1.336 0 2.615-.908 3.189-2.392v-6.062h1.631v7.675c0 .408.148.575.52.593v1.409c-.277.037-.48.074-.648.074-.74 0-1.186-.389-1.223-.982l-.057-1.168c-.854 1.446-2.354 2.262-4.023 2.262-2.023 0-3.079-1.39-3.079-4.06zM454.405 28.31l.705-1.094c1.131.853 2.262 1.298 3.504 1.298 1.391 0 2.299-.593 2.299-1.595 0-.964-.871-1.242-2.727-1.687-2.336-.575-3.318-1.02-3.318-2.54 0-1.947 1.65-3.003 3.709-3.003 1.445 0 2.762.519 3.633 1.279l-.74.983c-.816-.723-1.873-1.075-2.93-1.075-1.188 0-2.133.482-2.133 1.594 0 .908.631 1.112 2.281 1.521 2.576.612 3.801 1.131 3.801 2.781 0 1.798-1.502 2.948-3.838 2.948-1.539-.001-3.17-.501-4.246-1.41zM464.358 18.039V16h1.631v2.039h-1.631zm0 11.495v-9.678h1.631v9.678h-1.631zM476.944 29.534h-1.631V24.12c0-2.058-.631-2.966-1.91-2.966-1.334 0-2.781 1.075-3.227 2.54v5.84h-1.631v-9.678h1.482v2.077c.76-1.354 2.316-2.243 4.021-2.243 2.244 0 2.895 1.724 2.895 4.06v5.784h.001zM478.793 24.695c0-2.725 2.041-5.005 4.951-5.005 2.93 0 4.838 2.336 4.838 4.931 0 .26-.018.519-.037.63h-8.025c.146 1.91 1.574 3.245 3.262 3.245 1.188 0 2.354-.649 2.764-1.613l1.408.39c-.631 1.427-2.279 2.447-4.229 2.447-2.908-.001-4.932-2.3-4.932-5.025zm8.25-.649c-.166-1.854-1.574-3.133-3.299-3.133s-3.133 1.297-3.264 3.133h6.563zM489.543 28.31l.705-1.094c1.131.853 2.262 1.298 3.504 1.298 1.391 0 2.299-.593 2.299-1.595 0-.964-.871-1.242-2.727-1.687-2.336-.575-3.318-1.02-3.318-2.54 0-1.947 1.65-3.003 3.709-3.003 1.445 0 2.764.519 3.633 1.279l-.74.983c-.816-.723-1.873-1.075-2.93-1.075-1.188 0-2.133.482-2.133 1.594 0 .908.631 1.112 2.281 1.521 2.576.612 3.801 1.131 3.801 2.781 0 1.798-1.502 2.948-3.838 2.948-1.539-.001-3.169-.501-4.246-1.41zM498.682 28.31l.703-1.094c1.131.853 2.264 1.298 3.504 1.298 1.393 0 2.301-.593 2.301-1.595 0-.964-.871-1.242-2.727-1.687-2.336-.575-3.318-1.02-3.318-2.54 0-1.947 1.65-3.003 3.709-3.003 1.445 0 2.762.519 3.633 1.279l-.74.983c-.816-.723-1.873-1.075-2.93-1.075-1.188 0-2.133.482-2.133 1.594 0 .908.631 1.112 2.279 1.521 2.578.612 3.801 1.131 3.801 2.781 0 1.798-1.502 2.948-3.838 2.948-1.539-.001-3.17-.501-4.244-1.41zM513.583 29.534V16.371h5.488c2.316 0 3.984 2.132 3.984 4.208 0 2.169-1.557 4.227-3.875 4.227h-3.93v4.728h-1.667zm1.667-6.211h3.838c1.373 0 2.281-1.242 2.281-2.744 0-1.557-1.113-2.725-2.393-2.725h-3.727v5.469h.001zM529.913 21.284c-1.631.037-2.967.871-3.484 2.28v5.97h-1.633v-9.678h1.521V22.1c.668-1.335 1.836-2.318 3.059-2.318.242 0 .408 0 .539.019v1.483h-.002zM530.893 24.713c0-2.707 2.004-5.024 4.875-5.024 2.895 0 4.896 2.317 4.896 5.024 0 2.688-1.984 5.006-4.896 5.006-2.908 0-4.875-2.317-4.875-5.006zm4.875 3.597c1.781 0 3.229-1.594 3.229-3.615 0-2.002-1.447-3.597-3.229-3.597-1.76 0-3.205 1.613-3.205 3.634s1.428 3.578 3.205 3.578zM546.889 19.689c1.91 0 3.373.927 4.078 2.354l-1.594.5c-.5-.909-1.447-1.446-2.521-1.446-1.799 0-3.207 1.521-3.207 3.578 0 2.04 1.465 3.634 3.227 3.634 1.131 0 2.279-.686 2.576-1.501l1.596.482c-.576 1.409-2.188 2.429-4.135 2.429-2.91 0-4.934-2.317-4.934-5.043 0-2.725 1.967-4.987 4.914-4.987zM552.245 24.695c0-2.725 2.039-5.005 4.949-5.005 2.93 0 4.84 2.336 4.84 4.931 0 .26-.02.519-.037.63h-8.027c.148 1.91 1.576 3.245 3.264 3.245 1.186 0 2.354-.649 2.762-1.613l1.41.39c-.631 1.427-2.281 2.447-4.229 2.447-2.913-.001-4.932-2.3-4.932-5.025zm8.25-.649c-.166-1.854-1.576-3.133-3.301-3.133s-3.133 1.297-3.264 3.133h6.565zM562.995 28.31l.703-1.094c1.131.853 2.262 1.298 3.504 1.298 1.391 0 2.299-.593 2.299-1.595 0-.964-.871-1.242-2.725-1.687-2.336-.575-3.318-1.02-3.318-2.54 0-1.947 1.65-3.003 3.707-3.003 1.447 0 2.764.519 3.635 1.279l-.742.983c-.814-.723-1.873-1.075-2.93-1.075-1.186 0-2.131.482-2.131 1.594 0 .908.629 1.112 2.279 1.521 2.578.612 3.801 1.131 3.801 2.781 0 1.798-1.502 2.948-3.838 2.948-1.539-.001-3.17-.501-4.244-1.41zM572.129 28.31l.705-1.094c1.131.853 2.262 1.298 3.504 1.298 1.391 0 2.299-.593 2.299-1.595 0-.964-.871-1.242-2.727-1.687-2.336-.575-3.318-1.02-3.318-2.54 0-1.947 1.65-3.003 3.709-3.003 1.445 0 2.764.519 3.633 1.279l-.74.983c-.816-.723-1.873-1.075-2.93-1.075-1.188 0-2.133.482-2.133 1.594 0 .908.631 1.112 2.281 1.521 2.576.612 3.801 1.131 3.801 2.781 0 1.798-1.502 2.948-3.838 2.948-1.539-.001-3.169-.501-4.246-1.41z"/></g></g></g><g><circle fill="#B52467" cx="23.651" cy="76.354" r="21.266"/><path fill="#FFF" d="M11.623 72.043a2.861 2.861 0 1 0 0 5.46v-5.46zM30.239 69.415v1.248a4.587 4.587 0 0 1 2.579 4.114 4.593 4.593 0 0 1-2.579 4.114v1.242c2.172-.813 3.726-2.9 3.726-5.356a5.73 5.73 0 0 0-3.726-5.362z"/><path fill="#FFF" d="M30.239 65.773v1.166c3.598.793 6.302 4.005 6.302 7.837s-2.704 7.041-6.302 7.833v1.168c4.239-.805 7.448-4.528 7.448-9.001 0-4.477-3.209-8.199-7.448-9.003z"/><path fill="#FFF" d="M29.094 73.34v-7.158l-16.611 5.537v6.111l1.671.556 4.644 11.28h3.437l-4.097-9.951 10.955 3.652v-7.162a1.43 1.43 0 0 0 1.43-1.43 1.43 1.43 0 0 0-1.429-1.435z"/><g fill="#131215"><path d="M68.272 68.825c2.336 0 4.079 1.188 4.895 2.875l-1.316.852c-.779-1.668-2.317-2.225-3.652-2.225-2.929 0-4.505 2.651-4.505 5.135 0 2.744 1.947 5.209 4.561 5.209 1.372 0 3.003-.686 3.764-2.316l1.391.76c-.834 1.965-3.189 3.059-5.229 3.059-3.615 0-6.173-3.447-6.173-6.785-.002-3.189 2.297-6.564 6.264-6.564zM80.319 73.812c-1.631.037-2.966.871-3.485 2.28v5.97h-1.631v-9.679h1.52v2.244c.667-1.334 1.835-2.317 3.059-2.317.241 0 .408 0 .538.019l-.001 1.483zM81.3 77.223c0-2.725 2.039-5.006 4.95-5.006 2.929 0 4.838 2.337 4.838 4.932 0 .26-.019.52-.037.63h-8.027c.148 1.91 1.576 3.245 3.263 3.245 1.187 0 2.355-.648 2.763-1.613l1.409.391c-.63 1.427-2.28 2.447-4.227 2.447-2.911 0-4.932-2.299-4.932-5.026zm8.25-.648c-.167-1.854-1.576-3.134-3.3-3.134-1.725 0-3.133 1.297-3.263 3.134h6.563zM92.253 77.243c0-2.744 1.835-5.025 4.394-5.025 1.558 0 2.837.928 3.541 2.096V68.53h1.632v11.53c0 .407.148.575.519.593v1.409c-.26.037-.482.073-.649.073-.742 0-1.224-.444-1.242-.981l-.037-.909c-.76 1.242-2.15 2.002-3.541 2.002-2.688.002-4.617-2.334-4.617-5.004zm7.935 1.425v-2.78c-.463-1.261-1.854-2.263-3.077-2.263-1.91 0-3.17 1.781-3.17 3.635 0 1.947 1.446 3.578 3.318 3.578 1.168 0 2.688-.963 2.929-2.17zM104.56 70.567v-2.039h1.631v2.039h-1.631zm0 11.495v-9.679h1.631v9.679h-1.631zM113.772 81.581c-.408.186-1.316.611-2.354.611-1.187 0-2.188-.63-2.188-2.021v-6.506h-1.316v-1.279h1.316v-3.227h1.631v3.227h2.169v1.279h-2.169v6.006c.037.705.519 1.021 1.094 1.021.649 0 1.242-.296 1.428-.407l.389 1.296zM125.56 68.825c2.336 0 4.079 1.188 4.895 2.875l-1.316.852c-.779-1.668-2.317-2.225-3.652-2.225-2.929 0-4.505 2.651-4.505 5.135 0 2.744 1.947 5.209 4.561 5.209 1.372 0 3.003-.686 3.764-2.316l1.391.76c-.834 1.965-3.189 3.059-5.229 3.059-3.615 0-6.173-3.447-6.173-6.785-.002-3.189 2.297-6.564 6.264-6.564zM131.767 79.282c0-1.836 1.687-3.041 4.079-3.041.946 0 1.965.184 2.707.481v-.779c0-1.575-.946-2.54-2.559-2.54-1.001 0-2.021.389-3.078 1.131l-.538-1.057c1.242-.834 2.466-1.26 3.801-1.26 2.465 0 4.004 1.445 4.004 3.893v3.949c0 .408.148.574.519.593v1.409c-.241.037-.482.074-.667.074-.538 0-1.187-.278-1.224-.982l-.037-.686c-.871 1.168-2.354 1.779-3.671 1.779-1.945.003-3.336-1.315-3.336-2.964zm6.433.593c.241-.278.353-.557.353-.76v-1.429a7 7 0 0 0-2.447-.463c-1.668 0-2.781.741-2.781 1.909 0 1.002.816 1.892 2.188 1.892 1.037 0 2.131-.501 2.687-1.149zM147.93 73.812c-1.631.037-2.966.871-3.485 2.28v5.97h-1.631v-9.679h1.52v2.244c.667-1.334 1.835-2.317 3.059-2.317.241 0 .408 0 .538.019l-.001 1.483zM148.911 77.243c0-2.744 1.835-5.025 4.394-5.025 1.558 0 2.837.928 3.542 2.096V68.53h1.631v11.53c0 .407.148.575.519.593v1.409c-.26.037-.482.073-.649.073-.742 0-1.224-.444-1.242-.981l-.037-.909c-.76 1.242-2.15 2.002-3.541 2.002-2.689.002-4.617-2.334-4.617-5.004zm7.935 1.425v-2.78c-.464-1.261-1.854-2.263-3.078-2.263-1.91 0-3.17 1.781-3.17 3.635 0 1.947 1.446 3.578 3.318 3.578 1.168 0 2.689-.963 2.93-2.17zM171.598 68.825c2.336 0 4.079 1.188 4.895 2.875l-1.316.852c-.779-1.668-2.317-2.225-3.652-2.225-2.929 0-4.505 2.651-4.505 5.135 0 2.744 1.947 5.209 4.561 5.209 1.372 0 3.003-.686 3.764-2.316l1.391.76c-.834 1.965-3.189 3.059-5.229 3.059-3.615 0-6.173-3.447-6.173-6.785-.002-3.189 2.297-6.564 6.264-6.564zM177.805 79.282c0-1.836 1.687-3.041 4.079-3.041.946 0 1.965.184 2.707.481v-.779c0-1.575-.946-2.54-2.559-2.54-1.001 0-2.021.389-3.078 1.131l-.538-1.057c1.242-.834 2.466-1.26 3.801-1.26 2.465 0 4.004 1.445 4.004 3.893v3.949c0 .408.148.574.519.593v1.409c-.241.037-.482.074-.667.074-.538 0-1.187-.278-1.224-.982l-.037-.686c-.871 1.168-2.354 1.779-3.671 1.779-1.945.003-3.336-1.315-3.336-2.964zm6.433.593c.241-.278.353-.557.353-.76v-1.429a7 7 0 0 0-2.447-.463c-1.668 0-2.781.741-2.781 1.909 0 1.002.816 1.892 2.188 1.892 1.037 0 2.131-.501 2.687-1.149zM203.442 82.062h-1.631v-5.414c0-2.021-.667-2.966-1.947-2.966-1.316 0-2.466 1.057-2.911 2.559v5.821h-1.631v-5.414c0-2.058-.649-2.966-1.928-2.966-1.298 0-2.466 1.02-2.911 2.54v5.84h-1.631v-9.679h1.483v2.078c.779-1.428 2.095-2.244 3.671-2.244 1.613 0 2.596.982 2.818 2.354.853-1.538 2.114-2.354 3.689-2.354 2.225 0 2.929 1.744 2.929 4.061v5.784zM207.534 80.152v5.858h-1.631V72.383h1.446v1.818c.76-1.188 2.058-1.984 3.522-1.984 2.651 0 4.58 2.373 4.58 5.006 0 2.762-1.78 5.023-4.338 5.023-1.595.003-2.856-.889-3.579-2.094zm6.248-2.929c0-1.947-1.446-3.598-3.319-3.598-1.168 0-2.688.983-2.929 2.17v2.762c.538 1.279 1.761 2.279 3.078 2.279 1.909.002 3.17-1.777 3.17-3.613zM216.67 79.282c0-1.836 1.687-3.041 4.079-3.041.946 0 1.965.184 2.707.481v-.779c0-1.575-.946-2.54-2.559-2.54-1.001 0-2.021.389-3.078 1.131l-.538-1.057c1.242-.834 2.466-1.26 3.801-1.26 2.465 0 4.004 1.445 4.004 3.893v3.949c0 .408.148.574.519.593v1.409c-.241.037-.482.074-.667.074-.538 0-1.187-.278-1.224-.982l-.037-.686c-.871 1.168-2.354 1.779-3.671 1.779-1.945.003-3.336-1.315-3.336-2.964zm6.434.593c.241-.278.353-.557.353-.76v-1.429a7 7 0 0 0-2.447-.463c-1.668 0-2.781.741-2.781 1.909 0 1.002.816 1.892 2.188 1.892 1.037 0 2.13-.501 2.687-1.149zM227.717 70.567v-2.039h1.631v2.039h-1.631zm0 11.495v-9.679h1.631v9.679h-1.631zM231.312 77.243c0-2.726 1.835-5.025 4.486-5.025 1.613 0 2.8.891 3.615 2.096v-1.928h1.446v9.566c0 2.743-2.188 4.245-4.932 4.245-2.188 0-3.485-.815-4.394-2.132l.946-.834c.76 1.131 2.058 1.706 3.448 1.706 1.78 0 3.3-.964 3.3-2.985v-1.705c-.723 1.187-2.077 1.928-3.449 1.928-2.63-.003-4.466-2.356-4.466-4.932zm7.917 1.425v-2.78c-.52-1.316-1.817-2.263-3.096-2.263-1.965 0-3.17 1.854-3.17 3.652 0 1.928 1.465 3.561 3.318 3.561 1.372 0 2.688-1.075 2.948-2.17zM251.813 82.062h-1.632v-5.414c0-2.058-.63-2.966-1.909-2.966-1.335 0-2.781 1.074-3.226 2.54v5.84h-1.631v-9.679h1.483v2.078c.76-1.354 2.317-2.244 4.023-2.244 2.243 0 2.892 1.725 2.892 4.061v5.784z"/></g></g><g><g fill="#131215"><path d="M72.167 29.015c-1.168 1.261-2.484 1.873-4.005 1.873-3.485 0-6.136-3.319-6.136-6.711 0-3.541 2.614-6.637 6.136-6.637 2.54 0 4.171 1.168 5.024 2.874l-1.279.89c-.779-1.52-2.169-2.262-3.782-2.262-2.688 0-4.412 2.503-4.412 5.172 0 2.818 1.984 5.172 4.579 5.172 1.409 0 2.707-.667 3.875-2.076v-1.817H69.33v-1.261h4.246v6.563h-1.409v-1.78zM75.24 25.956c0-2.725 2.039-5.005 4.95-5.005 2.929 0 4.838 2.336 4.838 4.931 0 .26-.019.519-.037.63h-8.027c.148 1.91 1.576 3.245 3.263 3.245 1.187 0 2.354-.649 2.763-1.613l1.409.39c-.63 1.427-2.28 2.447-4.227 2.447-2.911-.001-4.932-2.299-4.932-5.025zm8.25-.649c-.167-1.854-1.576-3.133-3.3-3.133-1.725 0-3.133 1.297-3.263 3.133h6.563zM95.204 30.795h-1.632v-5.414c0-2.058-.63-2.966-1.909-2.966-1.335 0-2.781 1.075-3.226 2.54v5.84h-1.631v-9.678h1.483v2.077c.76-1.354 2.317-2.243 4.023-2.243 2.243 0 2.892 1.724 2.892 4.06v5.784zM97.055 25.956c0-2.725 2.039-5.005 4.95-5.005 2.929 0 4.838 2.336 4.838 4.931 0 .26-.019.519-.037.63h-8.027c.148 1.91 1.576 3.245 3.263 3.245 1.187 0 2.354-.649 2.763-1.613l1.409.39c-.63 1.427-2.28 2.447-4.227 2.447-2.912-.001-4.932-2.299-4.932-5.025zm8.25-.649c-.167-1.854-1.576-3.133-3.3-3.133-1.725 0-3.133 1.297-3.263 3.133h6.563zM113.736 22.545c-1.631.037-2.966.871-3.485 2.28v5.97h-1.631v-9.678h1.52v2.244c.667-1.335 1.835-2.318 3.059-2.318.241 0 .408 0 .538.019l-.001 1.483zM114.606 28.014c0-1.835 1.687-3.041 4.079-3.041.946 0 1.965.186 2.707.482v-.779c0-1.576-.946-2.54-2.559-2.54-1.001 0-2.021.389-3.078 1.131l-.538-1.057c1.242-.834 2.466-1.26 3.801-1.26 2.465 0 4.004 1.446 4.004 3.893v3.949c0 .408.148.575.519.593v1.409c-.241.037-.482.074-.667.074-.538 0-1.187-.278-1.224-.982l-.037-.686c-.871 1.168-2.354 1.78-3.671 1.78-1.945 0-3.336-1.316-3.336-2.966zm6.433.593c.241-.278.353-.556.353-.76v-1.428a7 7 0 0 0-2.447-.463c-1.668 0-2.781.742-2.781 1.91 0 1.001.816 1.891 2.188 1.891 1.037 0 2.131-.501 2.687-1.15zM125.041 25.975c0-2.744 1.835-5.024 4.394-5.024 1.558 0 2.837.927 3.541 2.095v-5.784h1.632v11.531c0 .408.148.575.519.593v1.409c-.26.037-.482.074-.649.074-.742 0-1.224-.445-1.242-.982l-.037-.909c-.76 1.242-2.15 2.002-3.541 2.002-2.689 0-4.617-2.335-4.617-5.005zm7.934 1.427v-2.781c-.463-1.26-1.854-2.262-3.077-2.262-1.91 0-3.17 1.78-3.17 3.634 0 1.947 1.446 3.578 3.318 3.578 1.168 0 2.688-.964 2.929-2.169zM136.735 25.975c0-2.707 2.002-5.024 4.876-5.024 2.892 0 4.894 2.317 4.894 5.024 0 2.688-1.983 5.006-4.894 5.006s-4.876-2.318-4.876-5.006zm4.876 3.596c1.78 0 3.226-1.594 3.226-3.615 0-2.002-1.446-3.597-3.226-3.597-1.761 0-3.208 1.613-3.208 3.634.001 2.021 1.429 3.578 3.208 3.578zM153.547 22.545c-1.631.037-2.966.871-3.485 2.28v5.97h-1.631v-9.678h1.52v2.244c.667-1.335 1.835-2.318 3.059-2.318.241 0 .408 0 .538.019l-.001 1.483zM159.18 25.975c0-2.744 1.835-5.024 4.394-5.024 1.558 0 2.837.927 3.542 2.095v-5.784h1.631v11.531c0 .408.148.575.519.593v1.409c-.26.037-.482.074-.649.074-.742 0-1.224-.445-1.242-.982l-.037-.909c-.76 1.242-2.15 2.002-3.541 2.002-2.689 0-4.617-2.335-4.617-5.005zm7.935 1.427v-2.781c-.464-1.26-1.854-2.262-3.078-2.262-1.91 0-3.17 1.78-3.17 3.634 0 1.947 1.446 3.578 3.318 3.578 1.168 0 2.689-.964 2.93-2.169zM170.875 25.956c0-2.725 2.039-5.005 4.95-5.005 2.929 0 4.838 2.336 4.838 4.931 0 .26-.019.519-.037.63h-8.027c.148 1.91 1.576 3.245 3.263 3.245 1.187 0 2.355-.649 2.763-1.613l1.409.39c-.63 1.427-2.28 2.447-4.227 2.447-2.912-.001-4.932-2.299-4.932-5.025zm8.25-.649c-.167-1.854-1.576-3.133-3.3-3.133-1.725 0-3.133 1.297-3.263 3.133h6.563zM186.016 30.795l5.414-13.163h1.372l5.396 13.163h-1.78l-1.557-3.856h-5.525l-1.539 3.856h-1.781zm6.099-11.235l-2.447 6.081h4.82l-2.373-6.081zM201.289 28.885v5.858h-1.631V21.117h1.446v1.817c.76-1.187 2.058-1.983 3.522-1.983 2.651 0 4.58 2.373 4.58 5.005 0 2.763-1.78 5.024-4.338 5.024-1.596 0-2.856-.89-3.579-2.095zm6.248-2.929c0-1.947-1.446-3.597-3.319-3.597-1.168 0-2.688.983-2.929 2.169v2.762c.538 1.279 1.761 2.28 3.078 2.28 1.909.001 3.17-1.778 3.17-3.614zM211.186 17.261h1.631v11.031c0 .723.408 1.149 1.094 1.149.278 0 .686-.093 1.001-.222l.26 1.316a5.86 5.86 0 0 1-1.947.39c-1.261 0-2.039-.76-2.039-2.04V17.261zM216.338 19.3v-2.039h1.631V19.3h-1.631zm0 11.495v-9.678h1.631v9.678h-1.631zM224.828 20.951c1.909 0 3.374.927 4.079 2.354l-1.595.5c-.5-.909-1.446-1.446-2.521-1.446-1.798 0-3.208 1.521-3.208 3.578 0 2.04 1.465 3.634 3.226 3.634 1.131 0 2.28-.686 2.577-1.501l1.595.482c-.575 1.409-2.188 2.429-4.134 2.429-2.911 0-4.932-2.317-4.932-5.043s1.965-4.987 4.913-4.987zM230.071 28.014c0-1.835 1.687-3.041 4.079-3.041.946 0 1.965.186 2.707.482v-.779c0-1.576-.946-2.54-2.559-2.54-1.001 0-2.021.389-3.078 1.131l-.538-1.057c1.242-.834 2.466-1.26 3.801-1.26 2.465 0 4.004 1.446 4.004 3.893v3.949c0 .408.148.575.519.593v1.409c-.241.037-.482.074-.667.074-.538 0-1.187-.278-1.224-.982l-.037-.686c-.871 1.168-2.354 1.78-3.671 1.78-1.946 0-3.336-1.316-3.336-2.966zm6.433.593c.241-.278.353-.556.353-.76v-1.428a7 7 0 0 0-2.447-.463c-1.668 0-2.781.742-2.781 1.91 0 1.001.816 1.891 2.188 1.891 1.037 0 2.131-.501 2.687-1.15zM245.418 20.951c1.909 0 3.374.927 4.079 2.354l-1.595.5c-.5-.909-1.446-1.446-2.521-1.446-1.798 0-3.208 1.521-3.208 3.578 0 2.04 1.465 3.634 3.226 3.634 1.131 0 2.28-.686 2.577-1.501l1.595.482c-.575 1.409-2.188 2.429-4.134 2.429-2.911 0-4.932-2.317-4.932-5.043s1.966-4.987 4.913-4.987zM251.385 19.3v-2.039h1.631V19.3h-1.631zm0 11.495v-9.678h1.631v9.678h-1.631zM254.961 25.975c0-2.707 2.002-5.024 4.876-5.024 2.892 0 4.894 2.317 4.894 5.024 0 2.688-1.983 5.006-4.894 5.006s-4.876-2.318-4.876-5.006zm4.876 3.596c1.78 0 3.226-1.594 3.226-3.615 0-2.002-1.446-3.597-3.226-3.597-1.761 0-3.208 1.613-3.208 3.634.001 2.021 1.429 3.578 3.208 3.578zM275.055 30.795h-1.632v-5.414c0-2.058-.63-2.966-1.909-2.966-1.335 0-2.781 1.075-3.226 2.54v5.84h-1.631v-9.678h1.483v2.077c.76-1.354 2.317-2.243 4.023-2.243 2.243 0 2.892 1.724 2.892 4.06v5.784zM276.906 25.956c0-2.725 2.039-5.005 4.95-5.005 2.929 0 4.838 2.336 4.838 4.931 0 .26-.019.519-.037.63h-8.027c.148 1.91 1.576 3.245 3.263 3.245 1.187 0 2.355-.649 2.763-1.613l1.409.39c-.63 1.427-2.28 2.447-4.227 2.447-2.912-.001-4.932-2.299-4.932-5.025zm8.25-.649c-.167-1.854-1.576-3.133-3.3-3.133-1.725 0-3.133 1.297-3.263 3.133h6.563zM287.655 29.571l.705-1.094c1.131.853 2.262 1.298 3.504 1.298 1.391 0 2.299-.593 2.299-1.595 0-.964-.871-1.242-2.725-1.687-2.336-.575-3.319-1.02-3.319-2.54 0-1.947 1.65-3.003 3.708-3.003 1.446 0 2.763.519 3.634 1.279l-.742.983c-.815-.723-1.873-1.075-2.929-1.075-1.187 0-2.132.482-2.132 1.594 0 .908.63 1.112 2.28 1.52 2.577.612 3.801 1.131 3.801 2.781 0 1.798-1.502 2.948-3.838 2.948-1.539 0-3.171-.5-4.246-1.409z"/></g><circle fill="#B52467" cx="23.651" cy="23.267" r="21.265"/><g fill="#FFF"><path d="M12.274 32.869V16.39H33.3v4.891l.6.08.28 1.728.26.173v-9.714a1.14 1.14 0 0 0-1.14-1.136H12.274c-.626 0-1.135.509-1.135 1.136v19.887c0 .628.509 1.137 1.135 1.137h13.321l-1.083-1.703H12.274zm5.99-19.322c.47 0 .85.381.85.853a.85.85 0 1 1-1.703 0c0-.471.379-.853.853-.853zm-2.558 0a.853.853 0 1 1-.003 1.705.853.853 0 0 1 .003-1.705zm-2.559 0a.852.852 0 1 1 0 1.705.852.852 0 0 1 0-1.705z"/><path d="M36.982 27.932l-.149-1.134.944-1.379-1.39-1.996-1.736.665-.993-.665-.249-1.554-2.283-.293-.796 1.528-1.089.32-1.393-.962-1.834.962.539 1.652-.676 1.143-1.699.281-.245 2.37 1.464.488s.567 1.535.419 1.535c-.145 0-1.041 1.332-1.041 1.332l1.188 1.873 1.99-.79.938.79.151 1.721 2.331.347.694-1.526 1.042-.248 1.59.889 1.732-1.182-.495-1.631.495-.984 1.889-.395.398-2.364-1.736-.793zm-5.657 4.123c-1.852 0-3.348-1.428-3.348-3.187 0-1.763 1.499-3.19 3.348-3.19 1.848 0 3.35 1.427 3.35 3.19 0 1.759-1.502 3.187-3.35 3.187z"/><g><path d="M13.704 18.336h8.521v1.134h-8.521zM13.704 23.451h8.521v1.135h-8.521zM13.704 20.894h11.078v1.136H13.704z"/></g></g></g></svg>